<?xml version="1.0" encoding="UTF-8" standalone="no"?>
<!DOCTYPE svg PUBLIC "-//W3C//DTD SVG 1.1//EN"
 "http://www.w3.org/Graphics/SVG/1.1/DTD/svg11.dtd">
<!-- Generated by graphviz version 2.36.0 (20140111.2315)
 -->
<!-- Title: G Pages: 1 -->
<svg width="647pt" height="558pt"
 viewBox="0.00 0.00 647.00 558.00" xmlns="http://www.w3.org/2000/svg" xmlns:xlink="http://www.w3.org/1999/xlink">
<g id="graph0" class="graph" transform="scale(1 1) rotate(0) translate(4 554)">
<title>G</title>
<polygon fill="white" stroke="none" points="-4,4 -4,-554 643,-554 643,4 -4,4"/>
<!-- start -->
<g id="node1" class="node"><title>start</title>
<ellipse fill="none" stroke="black" cx="502" cy="-532" rx="29.3722" ry="18"/>
<text text-anchor="middle" x="502" y="-528.3" font-family="Helvetica,sans-Serif" font-size="14.00">Start</text>
</g>
<!-- isAdmin -->
<g id="node2" class="node"><title>isAdmin</title>
<polygon fill="none" stroke="black" points="502,-476 365.568,-458 502,-440 638.432,-458 502,-476"/>
<text text-anchor="middle" x="502" y="-454.3" font-family="Helvetica,sans-Serif" font-size="14.00">Is this user an admin?</text>
</g>
<!-- start&#45;&gt;isAdmin -->
<g id="edge1" class="edge"><title>start&#45;&gt;isAdmin</title>
<path fill="none" stroke="black" d="M502,-513.937C502,-505.807 502,-495.876 502,-486.705"/>
<polygon fill="black" stroke="black" points="502,-476.441 506.5,-486.441 502,-481.441 502,-486.441 502,-486.441 502,-486.441 502,-481.441 497.5,-486.441 502,-476.441 502,-476.441"/>
</g>
<!-- isCreator -->
<g id="node3" class="node"><title>isCreator</title>
<polygon fill="none" stroke="black" points="263,-388 55.4058,-370 263,-352 470.594,-370 263,-388"/>
<text text-anchor="middle" x="263" y="-366.3" font-family="Helvetica,sans-Serif" font-size="14.00">Does the creator allow comments?</text>
</g>
<!-- isAdmin&#45;&gt;isCreator -->
<g id="edge3" class="edge"><title>isAdmin&#45;&gt;isCreator</title>
<path fill="none" stroke="black" d="M467.247,-444.495C426.031,-429.664 357.104,-404.862 310.862,-388.222"/>
<polygon fill="black" stroke="black" points="301.357,-384.802 312.29,-383.954 306.062,-386.495 310.766,-388.188 310.766,-388.188 310.766,-388.188 306.062,-386.495 309.243,-392.422 301.357,-384.802 301.357,-384.802"/>
<text text-anchor="middle" x="413" y="-410.3" font-family="Helvetica,sans-Serif" font-size="14.00">No</text>
</g>
<!-- permissionGranted -->
<g id="node8" class="node"><title>permissionGranted</title>
<ellipse fill="none" stroke="black" cx="504" cy="-18" rx="33.1991" ry="18"/>
<text text-anchor="middle" x="504" y="-14.3" font-family="Helvetica,sans-Serif" font-size="14.00">Profit!</text>
</g>
<!-- isAdmin&#45;&gt;permissionGranted -->
<g id="edge2" class="edge"><title>isAdmin&#45;&gt;permissionGranted</title>
<path fill="none" stroke="black" d="M520.034,-442.239C537.06,-426.534 560,-399.994 560,-371 560,-371 560,-371 560,-105 560,-80.1955 543.438,-56.9356 528.328,-40.876"/>
<polygon fill="black" stroke="black" points="521.106,-33.5955 531.343,-37.5258 524.627,-37.1452 528.149,-40.695 528.149,-40.695 528.149,-40.695 524.627,-37.1452 524.954,-43.8641 521.106,-33.5955 521.106,-33.5955"/>
<text text-anchor="middle" x="572" y="-234.3" font-family="Helvetica,sans-Serif" font-size="14.00">Yes</text>
</g>
<!-- isEvent -->
<g id="node4" class="node"><title>isEvent</title>
<polygon fill="none" stroke="black" points="263,-300 63.8143,-282 263,-264 462.186,-282 263,-300"/>
<text text-anchor="middle" x="263" y="-278.3" font-family="Helvetica,sans-Serif" font-size="14.00">Does the event allow comments?</text>
</g>
<!-- isCreator&#45;&gt;isEvent -->
<g id="edge4" class="edge"><title>isCreator&#45;&gt;isEvent</title>
<path fill="none" stroke="black" d="M263,-351.597C263,-339.746 263,-323.817 263,-310.292"/>
<polygon fill="black" stroke="black" points="263,-300.084 267.5,-310.084 263,-305.084 263,-310.084 263,-310.084 263,-310.084 263,-305.084 258.5,-310.084 263,-300.084 263,-300.084"/>
<text text-anchor="middle" x="275" y="-322.3" font-family="Helvetica,sans-Serif" font-size="14.00">Yes</text>
</g>
<!-- permissionDenied -->
<g id="node7" class="node"><title>permissionDenied</title>
<ellipse fill="none" stroke="black" cx="83" cy="-18" rx="83.2892" ry="18"/>
<text text-anchor="middle" x="83" y="-14.3" font-family="Helvetica,sans-Serif" font-size="14.00">Permission denied</text>
</g>
<!-- isCreator&#45;&gt;permissionDenied -->
<g id="edge5" class="edge"><title>isCreator&#45;&gt;permissionDenied</title>
<path fill="none" stroke="black" d="M189.974,-358.252C116.501,-345.325 14,-320.56 14,-283 14,-283 14,-283 14,-105 14,-79.6023 32.5344,-57.43 50.3911,-41.962"/>
<polygon fill="black" stroke="black" points="58.4789,-35.3393 53.5928,-45.1565 54.6104,-38.5071 50.7418,-41.6748 50.7418,-41.6748 50.7418,-41.6748 54.6104,-38.5071 47.8909,-38.1931 58.4789,-35.3393 58.4789,-35.3393"/>
<text text-anchor="middle" x="23" y="-190.3" font-family="Helvetica,sans-Serif" font-size="14.00">No</text>
</g>
<!-- isTeam -->
<g id="node5" class="node"><title>isTeam</title>
<polygon fill="none" stroke="black" points="286,-212 88.5719,-194 286,-176 483.428,-194 286,-212"/>
<text text-anchor="middle" x="286" y="-190.3" font-family="Helvetica,sans-Serif" font-size="14.00">Does the team allow comments?</text>
</g>
<!-- isEvent&#45;&gt;isTeam -->
<g id="edge6" class="edge"><title>isEvent&#45;&gt;isTeam</title>
<path fill="none" stroke="black" d="M267.544,-264.009C270.778,-251.917 275.188,-235.428 278.886,-221.601"/>
<polygon fill="black" stroke="black" points="281.544,-211.663 283.307,-222.486 280.252,-216.493 278.96,-221.323 278.96,-221.323 278.96,-221.323 280.252,-216.493 274.613,-220.161 281.544,-211.663 281.544,-211.663"/>
<text text-anchor="middle" x="289" y="-234.3" font-family="Helvetica,sans-Serif" font-size="14.00">Yes</text>
</g>
<!-- isEvent&#45;&gt;permissionDenied -->
<g id="edge7" class="edge"><title>isEvent&#45;&gt;permissionDenied</title>
<path fill="none" stroke="black" d="M180.706,-271.425C143.162,-262.48 102.028,-245.229 79,-212 44.3174,-161.953 60.8784,-85.7326 73.4162,-45.6975"/>
<polygon fill="black" stroke="black" points="76.5625,-36.1061 77.7214,-47.0106 75.004,-40.8571 73.4455,-45.608 73.4455,-45.608 73.4455,-45.608 75.004,-40.8571 69.1697,-44.2053 76.5625,-36.1061 76.5625,-36.1061"/>
<text text-anchor="middle" x="69" y="-146.3" font-family="Helvetica,sans-Serif" font-size="14.00">No</text>
</g>
<!-- isUser -->
<g id="node6" class="node"><title>isUser</title>
<polygon fill="none" stroke="black" points="337,-124 142.708,-106 337,-88 531.292,-106 337,-124"/>
<text text-anchor="middle" x="337" y="-102.3" font-family="Helvetica,sans-Serif" font-size="14.00">Is the user allowed to comment?</text>
</g>
<!-- isTeam&#45;&gt;isUser -->
<g id="edge8" class="edge"><title>isTeam&#45;&gt;isUser</title>
<path fill="none" stroke="black" d="M295.593,-176.824C303.025,-164.291 313.459,-146.697 321.993,-132.305"/>
<polygon fill="black" stroke="black" points="327.277,-123.396 326.047,-134.292 324.726,-127.696 322.176,-131.997 322.176,-131.997 322.176,-131.997 324.726,-127.696 318.306,-129.702 327.277,-123.396 327.277,-123.396"/>
<text text-anchor="middle" x="329" y="-146.3" font-family="Helvetica,sans-Serif" font-size="14.00">Yes</text>
</g>
<!-- isTeam&#45;&gt;permissionDenied -->
<g id="edge9" class="edge"><title>isTeam&#45;&gt;permissionDenied</title>
<path fill="none" stroke="black" d="M222.932,-181.612C186.767,-172.003 143.109,-154.69 115,-124 95.4432,-102.648 87.8286,-69.655 84.8695,-46.3601"/>
<polygon fill="black" stroke="black" points="83.785,-36.1069 89.312,-45.578 84.311,-41.0792 84.837,-46.0514 84.837,-46.0514 84.837,-46.0514 84.311,-41.0792 80.3619,-46.5248 83.785,-36.1069 83.785,-36.1069"/>
<text text-anchor="middle" x="124" y="-102.3" font-family="Helvetica,sans-Serif" font-size="14.00">No</text>
</g>
<!-- isUser&#45;&gt;permissionDenied -->
<g id="edge11" class="edge"><title>isUser&#45;&gt;permissionDenied</title>
<path fill="none" stroke="black" d="M297.312,-91.5625C253.714,-76.8009 183.508,-53.0304 135.411,-36.7453"/>
<polygon fill="black" stroke="black" points="125.8,-33.4915 136.715,-32.4362 130.536,-35.095 135.272,-36.6985 135.272,-36.6985 135.272,-36.6985 130.536,-35.095 133.829,-40.9609 125.8,-33.4915 125.8,-33.4915"/>
<text text-anchor="middle" x="242" y="-58.3" font-family="Helvetica,sans-Serif" font-size="14.00">No</text>
</g>
<!-- isUser&#45;&gt;permissionGranted -->
<g id="edge10" class="edge"><title>isUser&#45;&gt;permissionGranted</title>
<path fill="none" stroke="black" d="M365.329,-90.4113C394.762,-75.2544 440.748,-51.573 471.604,-35.6827"/>
<polygon fill="black" stroke="black" points="480.66,-31.0195 473.83,-39.5985 476.215,-33.3086 471.769,-35.5978 471.769,-35.5978 471.769,-35.5978 476.215,-33.3086 469.709,-31.5971 480.66,-31.0195 480.66,-31.0195"/>
<text text-anchor="middle" x="448" y="-58.3" font-family="Helvetica,sans-Serif" font-size="14.00">Yes</text>
</g>
</g>
</svg>
